Coordinates
version=1
nRows=16
nColumns=22
inDegrees=yes

Units are S.I. units (second, meters, Newtons, ...)
If the header above contains a line with 'inDegrees', this indicates whether rotational values are in degrees (yes) or radians (no).

endheader
time	pelvis_tilt	pelvis_list	pelvis_rotation	pelvis_tx	pelvis_ty	pelvis_tz	hip_flexion_r	hip_adduction_r	hip_rotation_r	knee_angle_r	ankle_angle_r	subtalar_angle_r	hip_flexion_l	hip_adduction_l	hip_rotation_l	knee_angle_l	ankle_angle_l	subtalar_angle_l	lumbar_extension	lumbar_bending	lumbar_rotation
      0.01000000	     -1.80138940	     -4.75642458	      0.86229328	      1.02872598	      1.01319668	      0.23590365	      1.34417086	      2.85333598	     -2.76932630	    -11.08760982	      8.99128305	      2.57768665	     -1.54491891	     -7.60558498	     -9.87848053	     -8.46017886	     11.63939877	      2.31870419	     -2.75371339	      1.37240626	     -1.01287875
      0.02000000	     -1.80292343	     -4.75578785	      0.85927764	      1.02868933	      1.01321021	      0.23588229	      1.34542969	      2.85112876	     -2.76810809	    -11.08148831	      8.99165142	      2.57848519	     -1.54405640	     -7.60325010	     -9.88095923	     -8.45730939	     11.63694048	      2.32023489	     -2.75801703	      1.38025696	     -1.02071514
      0.03000000	     -1.80773094	     -4.75739480	      0.86316907	      1.02868517	      1.01322290	      0.23586040	      1.34242873	      2.85260700	     -2.76056867	    -11.06619376	      8.98575141	      2.58432862	     -1.54728667	     -7.60352616	     -9.89161173	     -8.43751513	     11.62192688	      2.32928381	     -2.74776975	      1.39135694	     -1.05902340
      0.04000000	     -1.81548213	     -4.75779142	      0.86234690	      1.02867338	      1.01322957	      0.23583812	      1.34375973	      2.85169503	     -2.76189036	    -11.05127930	      8.97552867	      2.59060523	     -1.54729371	     -7.60110113	     -9.89033631	     -8.42066896	     11.60952031	      2.33854251	     -2.73416826	      1.40187128	     -1.07633896
      0.05000000	     -1.81803803	     -4.75645306	      0.86054165	      1.02862501	      1.01323821	      0.23581777	      1.34675514	      2.84892412	     -2.76248170	    -11.04624352	      8.97412599	      2.59142400	     -1.54480515	     -7.59789691	     -9.89044744	     -8.41572850	     11.60801623	      2.33997095	     -2.73511691	      1.40907918	     -1.07925148
      0.06000000	     -1.83240992	     -4.75560073	      0.85865266	      1.02863429	      1.01322923	      0.23580256	      1.35188180	      2.84694959	     -2.76347336	    -11.02748679	      8.96393470	      2.59613715	     -1.54394807	     -7.59416241	     -9.89485228	     -8.38897674	     11.59855090	      2.34671938	     -2.70780504	      1.41608408	     -1.10039689
      0.07000000	     -1.85101617	     -4.75519122	      0.85792377	      1.02861174	      1.01321476	      0.23578552	      1.36328244	      2.84552932	     -2.76269552	    -11.00839492	      8.95013076	      2.60279567	     -1.52985225	     -7.59159514	     -9.88993553	     -8.37393133	     11.58344670	      2.35650678	     -2.68371624	      1.42240057	     -1.10902868
      0.08000000	     -1.85309859	     -4.75390662	      0.85216701	      1.02858050	      1.01321706	      0.23576960	      1.36517694	      2.84254857	     -2.76361679	    -11.00431453	      8.94960483	      2.60320614	     -1.52826837	     -7.58848710	     -9.88985943	     -8.37276673	     11.58292878	      2.35730151	     -2.68198291	      1.42985972	     -1.11146411
      0.09000000	     -1.86791317	     -4.75434057	      0.84701764	      1.02859448	      1.01319941	      0.23575700	      1.36927115	      2.84165100	     -2.76329655	    -10.98321344	      8.94398629	      2.60642881	     -1.52158604	     -7.58729727	     -9.89823042	     -8.35786784	     11.58006529	      2.36097992	     -2.65675508	      1.43766098	     -1.12131571
      0.10000000	     -1.87126374	     -4.75367338	      0.84096461	      1.02856451	      1.01319645	      0.23574646	      1.37179544	      2.83955047	     -2.76375795	    -10.97776710	      8.94309188	      2.60692761	     -1.51763911	     -7.58565619	     -9.89816576	     -8.35727283	     11.57945638	      2.36161233	     -2.65838510	      1.44380317	     -1.12227793
      0.11000000	     -1.87519020	     -4.75314485	      0.83328066	      1.02855641	      1.01319263	      0.23573539	      1.37280766	      2.83711135	     -2.76417346	    -10.97032744	      8.94178399	      2.60761811	     -1.51425171	     -7.58432563	     -9.89904341	     -8.35821208	     11.57889723	      2.36220668	     -2.65561089	      1.45116964	     -1.12358378
      0.12000000	     -1.90942359	     -4.76831356	      0.82242708	      1.02855972	      1.01315198	      0.23574917	      1.39718179	      2.85427882	     -2.73687023	    -10.94597192	      8.91158374	      2.61948538	     -1.46962103	     -7.60338746	     -9.92034260	     -8.37630534	     11.58411812	      2.36843301	     -2.61350907	      1.47292504	     -1.12374783
      0.13000000	     -1.91148851	     -4.76748199	      0.81432409	      1.02855797	      1.01315189	      0.23574738	      1.39774959	      2.85221617	     -2.73894555	    -10.94212302	      8.91258164	      2.61943848	     -1.46718018	     -7.60233116	     -9.91928819	     -8.37877260	     11.58461097	      2.36862311	     -2.61553937	      1.47749172	     -1.12361168
      0.14000000	     -1.91984131	     -4.76948752	      0.80670628	      1.02856235	      1.01314313	      0.23575089	      1.39846001	      2.85442607	     -2.73543953	    -10.92617803	      8.91431266	      2.62038740	     -1.44652484	     -7.60664290	     -9.92389466	     -8.40537925	     11.59107793	      2.36980416	     -2.60999687	      1.48370043	     -1.11383187
      0.15000000	     -1.92195861	     -4.76858021	      0.79580276	      1.02857602	      1.01314637	      0.23575252	      1.39904325	      2.85259542	     -2.73570756	    -10.92400556	      8.91392875	      2.62047422	     -1.44416041	     -7.60498750	     -9.92270166	     -8.41028440	     11.59165200	      2.37015673	     -2.61112839	      1.49007482	     -1.11675126
      0.16000000	     -1.92469165	     -4.76771048	      0.78411614	      1.02859525	      1.01314844	      0.23575727	      1.39943558	      2.85128370	     -2.73448616	    -10.92018899	      8.91326956	      2.62061301	     -1.43923046	     -7.60376483	     -9.92097576	     -8.42098292	     11.59205237	      2.37073946	     -2.61299346	      1.49648710	     -1.11881965
